<?xml version="1.0" standalone="no"?>
<!DOCTYPE svg PUBLIC "-//W3C//DTD SVG 20010904//EN"
 "http://www.w3.org/TR/2001/REC-SVG-20010904/DTD/svg10.dtd">
<svg version="1.0" xmlns="http://www.w3.org/2000/svg"
 width="1600.000000pt" height="1600.000000pt" viewBox="0 0 1600.000000 1600.000000"
 preserveAspectRatio="xMidYMid meet">
<metadata>
Created by potrace 1.14, written by Peter Selinger 2001-2017
</metadata>
<g transform="translate(0.000000,1600.000000) scale(0.100000,-0.100000)"
fill="#000000" stroke="none">
<path d="M2428 14142 l-128 -3 0 -353 c0 -271 3 -356 13 -364 12 -10 361 -76
567 -107 58 -9 113 -19 123 -21 16 -5 17 11 17 249 0 253 0 254 -22 265 -17 8
-18 11 -7 11 24 1 29 30 29 186 l0 140 -233 0 c-127 0 -289 -1 -359 -3z"/>
<path d="M6753 14142 l-23 -3 0 -414 c0 -321 -3 -414 -12 -418 -7 -2 -165 -17
-352 -33 -325 -27 -339 -29 -346 -50 -9 -24 -10 -770 -1 -820 l6 -30 125 18
c69 10 226 35 350 56 l225 38 3 406 c2 376 4 407 20 412 18 5 161 22 277 32
39 3 80 7 92 9 12 2 84 9 160 16 107 10 141 17 155 31 17 17 18 45 18 383 l0
365 -292 1 c-161 0 -313 1 -338 2 -25 1 -55 1 -67 -1z"/>
<path d="M9985 14140 l-300 -5 -3 -265 c-2 -145 -4 -265 -5 -266 -2 -2 -14 -3
-402 -34 -137 -11 -262 -23 -277 -26 l-28 -6 0 -304 c0 -167 3 -304 7 -304 4
0 117 18 252 39 135 22 284 45 331 52 47 6 94 15 104 19 21 7 19 -25 25 466
l1 92 33 5 c17 3 86 9 152 12 66 3 138 8 160 10 22 2 112 7 200 11 88 3 162 9
165 11 6 6 5 482 -1 488 -9 8 -126 10 -414 5z"/>
<path d="M12678 14142 l-38 -3 0 -290 0 -289 -28 0 c-15 0 -129 11 -252 24
-124 14 -261 27 -305 31 -44 3 -92 9 -107 11 l-28 6 4 -272 c3 -150 6 -273 8
-275 2 -2 86 -17 188 -34 102 -17 255 -47 341 -66 86 -19 161 -35 167 -35 8 0
11 84 12 286 0 158 3 291 7 297 10 17 214 -12 548 -77 72 -14 138 -26 148 -26
16 0 17 24 17 355 l0 354 -322 3 c-178 2 -340 2 -360 0z"/>
<path d="M3778 14078 c-2 -35 -5 -241 -7 -458 -1 -217 -4 -397 -7 -399 -6 -6
-357 25 -542 48 -132 16 -144 16 -152 1 -5 -9 -9 -195 -9 -413 1 -366 2 -398
18 -406 31 -17 437 -95 649 -125 40 -6 42 -5 44 21 0 16 2 37 3 48 1 11 3 201
4 422 1 317 4 402 14 398 13 -4 193 -12 505 -21 l202 -7 0 477 0 476 -359 0
-359 0 -4 -62z"/>
<path d="M5258 14128 c-3 -7 -6 -218 -7 -468 -1 -250 -3 -456 -4 -456 -5 -5
-316 -14 -491 -15 -109 0 -205 -3 -213 -6 -12 -5 -14 -70 -12 -422 1 -229 4
-433 7 -455 l4 -38 282 6 c300 7 406 13 419 25 6 7 13 325 16 793 l1 106 93 6
c91 5 157 9 397 22 69 4 132 8 140 10 8 1 32 3 52 3 l38 1 -5 428 c-2 235 -4
437 -4 450 l-1 22 -354 0 c-274 0 -355 -3 -358 -12z"/>
<path d="M8210 13805 c0 -260 -3 -337 -12 -340 -7 -2 -80 -12 -163 -20 -156
-17 -175 -19 -315 -35 -47 -5 -114 -12 -150 -16 -36 -3 -67 -8 -70 -11 -9 -8
-12 -756 -4 -750 5 3 161 35 346 73 185 37 342 71 349 75 12 7 14 87 18 556 1
140 -9 127 106 137 33 3 123 13 200 21 77 9 201 21 275 28 l135 12 3 303 2
302 -360 0 -360 0 0 -335z"/>
<path d="M11160 13900 l0 -240 -62 0 c-135 -1 -546 -11 -592 -15 -26 -2 -51
-6 -54 -9 -3 -3 -7 -121 -10 -262 l-5 -257 89 7 c49 3 211 9 359 12 149 4 272
8 274 10 2 2 5 114 7 249 2 135 6 250 9 255 3 6 27 8 53 5 26 -2 151 -7 277
-10 127 -3 265 -8 308 -12 l77 -6 -4 239 c-3 132 -5 247 -5 257 -1 16 -25 17
-361 17 l-360 0 0 -240z"/>
<path d="M11118 12869 c-85 -9 -164 -45 -226 -103 -61 -58 -89 -113 -103 -210
-22 -146 19 -281 136 -456 103 -153 174 -235 474 -548 96 -100 185 -198 198
-216 52 -72 55 -286 8 -451 -16 -55 -67 -175 -134 -310 -153 -309 -173 -377
-160 -551 16 -209 191 -394 466 -494 34 -12 72 -20 84 -17 13 3 32 -2 48 -13
14 -10 62 -27 106 -36 100 -23 341 -26 397 -6 46 17 84 60 99 115 39 146 1
307 -151 637 -243 530 -281 676 -225 873 22 74 44 103 107 139 257 146 484
305 601 421 86 84 120 138 143 227 24 88 24 272 1 360 -72 272 -309 460 -587
463 -104 1 -141 -10 -199 -59 -51 -42 -61 -78 -61 -206 0 -94 6 -138 35 -263
67 -283 54 -470 -39 -570 -81 -87 -229 -91 -353 -9 -217 145 -265 369 -156
729 23 75 27 107 26 196 -1 92 -4 113 -27 162 -34 71 -109 139 -183 167 -77
29 -209 40 -325 29z"/>
<path d="M9760 12768 c-290 -18 -668 -132 -867 -260 -230 -149 -359 -384 -340
-622 9 -113 57 -203 96 -179 15 9 22 7 39 -9 28 -28 71 -26 137 7 70 34 140
111 216 240 85 143 151 205 217 205 35 0 73 -42 83 -90 13 -65 2 -601 -15
-765 -38 -353 -109 -621 -281 -1070 -107 -280 -116 -316 -116 -499 -1 -115 14
-194 48 -259 38 -75 128 -144 213 -162 206 -46 596 99 790 294 171 171 220
284 221 509 0 161 -28 250 -164 514 -139 271 -192 437 -226 708 -26 211 -33
321 -32 550 0 356 24 420 152 420 l58 0 53 -62 c147 -173 185 -196 301 -184
100 10 166 58 209 151 19 41 23 66 23 145 -1 85 -4 102 -32 162 -61 131 -152
197 -324 237 -94 23 -286 30 -459 19z"/>
<path d="M7683 12298 c-125 -8 -237 -28 -412 -74 -476 -124 -770 -330 -881
-617 -97 -249 -82 -546 32 -630 34 -26 120 -27 168 -2 92 46 128 92 231 295
69 136 133 213 187 225 65 14 98 -32 111 -158 10 -85 7 -539 -4 -662 -12 -138
-26 -291 -30 -320 -2 -16 -7 -57 -11 -90 -3 -33 -8 -67 -9 -75 -2 -8 -6 -51
-10 -95 -4 -44 -11 -84 -15 -90 -4 -5 -24 -75 -45 -155 -35 -139 -105 -359
-214 -670 -66 -189 -85 -299 -78 -455 8 -201 65 -317 181 -371 75 -35 227 -34
334 2 160 53 344 168 466 290 113 114 217 270 257 384 34 100 40 344 11 458
-12 46 -34 108 -50 140 -16 31 -65 127 -109 213 -149 291 -200 502 -233 964
-12 176 -12 612 1 705 19 138 64 200 144 200 53 0 85 -24 149 -114 79 -111
154 -160 182 -121 13 17 14 17 20 1 5 -14 14 -16 43 -11 89 16 171 93 218 204
25 61 27 77 28 196 0 129 0 130 -36 205 -20 41 -54 93 -75 114 -96 96 -272
133 -551 114z"/>
<path d="M2599 12149 c-58 -9 -75 -18 -119 -64 l-35 -36 0 -102 c1 -94 5 -114
48 -252 91 -285 152 -552 166 -725 14 -175 11 -603 -5 -713 -31 -222 -114
-433 -249 -637 -83 -125 -96 -167 -100 -315 -4 -146 7 -246 45 -390 59 -229
159 -413 300 -556 106 -106 211 -177 322 -217 99 -36 244 -37 330 -3 67 26
151 98 179 152 35 69 62 206 62 314 0 134 -20 224 -110 488 -111 330 -121 360
-163 507 -41 139 -108 456 -99 465 3 2 45 -6 95 -20 140 -38 210 -48 335 -47
329 1 584 155 724 437 59 118 76 202 76 379 1 111 -4 162 -20 230 -73 307
-305 560 -701 764 -237 123 -786 323 -921 337 -103 11 -112 11 -160 4z"/>
<path d="M5525 11893 c-122 -4 -446 -33 -553 -49 -245 -37 -364 -123 -408
-294 -29 -112 -16 -260 39 -470 111 -419 147 -686 141 -1053 -6 -384 -66 -709
-213 -1159 -32 -101 -66 -208 -74 -238 -90 -326 -53 -585 109 -760 65 -69 140
-114 251 -152 82 -27 94 -29 247 -27 230 2 388 38 595 135 166 78 301 174 428
305 186 192 321 435 374 674 7 34 13 121 14 200 0 123 -3 148 -24 207 -29 79
-85 148 -144 177 -38 18 -50 20 -98 11 -97 -18 -168 -62 -289 -177 -172 -165
-245 -210 -352 -220 -186 -18 -321 174 -335 477 -10 224 53 411 157 465 14 7
93 26 175 44 225 46 250 55 305 110 27 27 63 77 81 112 29 57 33 75 37 164 4
95 2 103 -25 155 -18 34 -45 66 -72 85 -37 26 -50 30 -104 28 -34 -1 -102 -9
-152 -17 -132 -24 -274 -31 -318 -17 -192 64 -192 373 0 547 71 63 158 81 487
99 67 4 121 12 139 21 48 25 118 105 149 172 27 57 30 72 30 162 -1 111 -20
170 -70 223 -53 56 -71 60 -272 61 -102 1 -216 0 -255 -1z"/>
<path d="M11357 9216 c-242 -90 -318 -427 -181 -806 76 -214 247 -501 529
-896 71 -98 156 -217 189 -264 l61 -85 3 -190 c3 -162 0 -205 -17 -290 -28
-137 -59 -231 -138 -414 -82 -194 -137 -354 -158 -463 -18 -97 -18 -247 1
-329 40 -172 173 -353 320 -435 272 -152 723 -149 835 6 29 39 50 138 50 230
0 124 -34 239 -171 581 -224 559 -270 760 -225 971 30 142 23 135 296 305 354
220 487 322 530 405 52 101 67 303 34 463 -65 315 -292 619 -551 736 -92 42
-166 44 -224 5 -63 -42 -71 -71 -71 -257 1 -128 6 -184 27 -291 84 -432 58
-661 -85 -759 -49 -34 -146 -34 -214 0 -62 30 -144 110 -196 191 -117 181
-135 463 -51 800 27 109 32 149 32 258 0 256 -110 432 -320 513 -73 28 -247
37 -305 15z"/>
<path d="M10230 9163 c-218 -10 -480 -83 -712 -199 -89 -45 -188 -104 -221
-132 -17 -15 -16 -16 10 -28 l28 -12 -28 -11 c-16 -6 -41 -11 -55 -11 -35 0
-63 -20 -130 -90 -206 -217 -303 -577 -210 -778 39 -82 99 -101 202 -65 95 35
161 114 264 319 66 131 103 180 156 206 127 61 153 -31 143 -512 -14 -701 -81
-1077 -306 -1712 -101 -286 -111 -334 -111 -545 0 -248 36 -365 145 -477 95
-97 192 -136 340 -136 277 1 484 98 636 299 113 149 142 248 142 486 0 247
-18 327 -148 655 -192 486 -254 815 -271 1445 -3 116 -7 215 -9 222 -2 6 -14
13 -27 15 -17 2 -32 20 -57 71 -31 62 -33 69 -18 84 14 14 18 13 41 -10 19
-20 26 -36 26 -67 0 -22 4 -40 9 -40 20 0 29 30 35 120 13 195 38 269 100 298
68 33 132 -13 212 -151 89 -155 167 -202 288 -177 32 6 69 23 86 37 163 136
148 538 -26 732 -50 55 -150 112 -240 135 -70 18 -214 32 -294 29z"/>
<path d="M8202 8385 c-19 -8 -76 -22 -129 -30 -115 -19 -239 -64 -441 -161
-547 -262 -840 -522 -940 -834 -65 -202 -54 -370 29 -454 38 -37 42 -38 88
-33 126 15 220 104 325 308 85 166 119 214 173 246 57 33 91 28 118 -17 19
-33 20 -52 21 -315 3 -533 -38 -876 -150 -1260 -41 -140 -68 -216 -164 -456
-90 -223 -105 -297 -100 -477 3 -126 5 -142 32 -196 36 -75 111 -150 184 -184
48 -22 74 -27 169 -30 253 -9 488 81 658 252 170 171 225 306 225 552 0 177
-28 274 -147 516 -87 178 -136 300 -178 444 -34 115 -84 431 -89 559 -8 190
-6 690 3 750 18 121 63 187 138 201 56 11 83 -5 151 -91 91 -113 113 -127 187
-123 75 5 127 30 185 88 84 84 125 203 125 365 0 179 -62 310 -171 364 -41 21
-67 25 -159 28 -82 3 -118 0 -143 -12z"/>
<path d="M2458 8000 c-103 -14 -110 -89 -37 -377 38 -151 65 -306 70 -408 11
-223 1 -878 -15 -961 -2 -10 -7 -50 -11 -89 -20 -210 -63 -487 -121 -788 -79
-410 -40 -591 170 -803 133 -134 315 -239 546 -314 186 -61 308 -81 498 -80
200 0 276 11 416 60 140 50 249 116 345 210 193 189 262 434 210 750 -49 299
-268 557 -694 819 -66 40 -121 75 -123 76 -2 2 38 25 88 51 199 102 291 239
292 433 1 100 -15 168 -64 265 -90 181 -304 400 -623 636 -218 162 -686 461
-780 498 -43 18 -124 28 -167 22z"/>
<path d="M6225 7569 c-88 -14 -758 -166 -970 -220 -167 -43 -297 -125 -344
-217 -26 -53 -31 -81 -32 -179 0 -80 5 -102 54 -253 101 -304 128 -445 134
-705 7 -276 -7 -378 -115 -785 -11 -41 -31 -97 -45 -125 -44 -87 -133 -317
-152 -390 -25 -100 -23 -234 5 -308 58 -155 213 -260 423 -289 121 -16 418 -4
538 21 436 93 732 273 925 562 91 137 136 252 153 394 21 175 -8 288 -95 371
-61 59 -94 69 -175 54 -104 -19 -167 -56 -309 -179 -158 -138 -236 -175 -365
-175 -93 0 -142 20 -193 79 -77 86 -106 190 -101 347 4 99 7 109 44 184 57
112 84 130 279 182 86 24 183 52 214 64 68 25 143 97 187 178 26 48 30 65 30
135 0 91 -16 130 -67 166 -56 40 -120 37 -308 -16 -208 -58 -287 -66 -349 -33
-70 36 -86 66 -86 156 0 91 22 142 94 220 90 96 168 129 450 186 192 39 231
56 300 131 92 100 132 265 86 355 -18 34 -80 90 -103 91 -9 0 -26 2 -37 3 -11
2 -42 0 -70 -5z"/>
<path d="M11160 4191 l0 -461 -242 -1 c-256 -1 -459 -6 -464 -12 -3 -3 -5
-410 -4 -794 l0 -143 355 0 c195 0 355 3 356 8 1 9 7 614 8 806 l1 139 208 -7
c255 -8 402 -15 465 -22 l49 -5 -4 445 c-1 244 -6 447 -10 451 -12 13 -304 38
-575 51 l-143 6 0 -461z"/>
<path d="M10164 4608 c-96 -10 -240 -26 -321 -35 l-148 -18 -6 -50 c-3 -27 -7
-223 -8 -435 -1 -212 -3 -386 -4 -387 -4 -4 -92 -13 -222 -23 -297 -23 -470
-42 -476 -52 -4 -5 -7 -191 -8 -413 l-2 -402 23 -4 c17 -3 283 -3 443 1 6 0
65 -3 133 -6 l122 -6 0 450 0 450 98 6 c53 4 120 9 147 11 28 2 118 7 200 10
149 6 257 14 263 20 1 1 5 205 8 453 l5 451 -36 -2 c-21 -1 -115 -10 -211 -19z"/>
<path d="M12648 4408 c-2 -24 -5 -207 -7 -408 -1 -200 -4 -366 -6 -368 -2 -2
-61 4 -132 12 -118 15 -540 56 -570 56 -10 0 -12 -73 -8 -367 2 -203 4 -410 4
-461 l1 -93 356 2 355 2 -2 81 c-1 68 -5 84 -22 97 l-20 16 20 79 c17 66 20
116 22 318 1 132 4 243 7 245 8 8 538 -80 693 -115 l23 -5 -4 361 c-3 198 -7
362 -9 364 -14 12 -408 146 -430 146 -4 0 -30 -31 -56 -70 -26 -38 -54 -70
-60 -70 -20 0 -16 10 32 84 25 38 43 71 41 73 -5 5 -203 63 -215 63 -5 0 -11
-19 -13 -42z"/>
<path d="M8715 4394 c-99 -19 -252 -49 -340 -67 l-160 -32 -3 -369 c-1 -262 1
-372 9 -376 12 -8 41 -6 224 16 84 9 123 18 131 29 11 14 12 14 18 0 4 -12 15
-15 43 -11 21 3 93 10 160 17 l121 13 5 35 c2 20 5 204 6 409 2 351 1 372 -16
371 -10 0 -99 -16 -198 -35z"/>
<path d="M2306 4190 c-3 -14 -5 -176 -4 -360 l3 -334 110 -23 c116 -23 574
-103 593 -103 14 0 9 598 -5 610 -4 4 -62 22 -128 40 -66 18 -196 59 -290 91
-93 32 -174 59 -181 59 -6 0 -16 -18 -23 -40 -10 -36 -44 -80 -61 -80 -3 0 -4
28 -2 63 2 35 2 72 0 83 -4 16 -6 16 -12 -6z"/>
<path d="M7100 4073 c-184 -36 -341 -68 -349 -72 -16 -8 -18 -66 -20 -422 l-1
-196 -62 -7 c-100 -10 -518 -45 -575 -47 -29 -2 -58 -6 -64 -10 -9 -5 -12 -73
-12 -251 1 -133 2 -253 2 -266 l1 -22 353 4 352 5 2 218 c1 166 -1 223 -11
238 -11 17 -11 22 0 33 8 7 14 30 14 52 0 21 5 42 10 45 6 4 158 22 338 41
180 19 337 36 350 39 l23 6 -2 322 c-1 177 -4 329 -8 338 -5 14 -45 9 -341
-48z"/>
<path d="M5655 3844 c-110 -13 -245 -27 -300 -31 l-100 -8 -3 -260 c-1 -168
-6 -261 -13 -266 -6 -3 -124 -7 -262 -9 -139 -1 -281 -4 -317 -5 -36 -2 -78
-3 -95 -4 l-30 -1 2 -213 c0 -116 1 -224 2 -240 l1 -27 351 4 c193 3 352 6
354 8 1 2 5 108 9 237 4 173 9 237 18 243 7 4 36 8 63 9 28 0 61 2 75 3 14 2
96 7 183 10 180 8 366 22 372 28 3 2 6 126 7 276 l3 272 -60 -1 c-33 -1 -150
-12 -260 -25z"/>
<path d="M3778 3809 c-4 -74 -5 -112 -6 -303 l-2 -209 -117 7 c-65 3 -221 17
-348 31 -170 18 -231 22 -236 13 -4 -6 -8 -134 -9 -283 l-1 -273 33 -5 c18 -3
178 -6 356 -6 254 -1 322 1 323 11 3 44 8 234 8 357 l1 144 98 -7 c153 -10
519 -21 595 -17 l27 1 -2 257 c-3 247 -4 256 -23 259 -11 2 -76 4 -145 5 -69
1 -165 5 -215 10 -49 4 -119 10 -155 13 -36 4 -91 9 -122 12 -56 6 -58 6 -60
-17z"/>
<path d="M8070 3525 c-58 -6 -134 -15 -170 -19 -36 -5 -141 -15 -235 -25
l-170 -16 -3 -343 -2 -342 360 0 360 0 0 380 c0 356 -1 380 -17 379 -10 -1
-65 -7 -123 -14z"/>
</g>
</svg>
